# MagicaVoxel @ Ephtracy

# group
o 

# material
mtllib arrow_1.mtl
usemtl palette

# normals
vn -1 0 0
vn 1 0 0
vn 0 0 1
vn 0 0 -1
vn 0 -1 0
vn 0 1 0

# texcoords
vt 0.939453 0.5
vt 0.943359 0.5
vt 0.947266 0.5

# verts
v -1.7 0 6.6
v -1.7 0 6.4
v -1.7 0.1 6.6
v -1.7 0.1 6.4
v -1.7 0.4 6.6
v -1.7 0.4 6.4
v -1.6 0 6.8
v -1.6 0 6.6
v -1.6 0.1 6.8
v -1.6 0.1 6.6
v -1.6 0.4 6.8
v -1.6 0.4 6.6
v -1.5 0 7
v -1.5 0 6.8
v -1.5 0.1 7
v -1.5 0.1 6.8
v -1.5 0.4 7
v -1.5 0.4 6.8
v -1.5 0.4 6.6
v -1.5 0.4 6.4
v -1.5 0.5 6.6
v -1.5 0.5 6.4
v -1.4 0 7.2
v -1.4 0 7
v -1.4 0.1 7.2
v -1.4 0.1 7
v -1.4 0.4 7.2
v -1.4 0.4 7
v -1.4 0.4 6.8
v -1.4 0.4 6.6
v -1.4 0.5 6.8
v -1.4 0.5 6.6
v -1.3 0 7.4
v -1.3 0 7.2
v -1.3 0.1 7.4
v -1.3 0.1 7.2
v -1.3 0.4 7.4
v -1.3 0.4 7.2
v -1.3 0.4 7
v -1.3 0.4 6.8
v -1.3 0.5 7
v -1.3 0.5 6.8
v -1.2 0 7.6
v -1.2 0 7.4
v -1.2 0.1 7.6
v -1.2 0.1 7.4
v -1.2 0.4 7.6
v -1.2 0.4 7.4
v -1.2 0.4 7.2
v -1.2 0.4 7
v -1.2 0.5 7.2
v -1.2 0.5 7
v -1 0 7.6
v -1 0 7.4
v -1 0.1 7.6
v -1 0.1 7.4
v -1 0.4 7.6
v -1 0.4 7.4
v -1 0.4 7.2
v -1 0.4 7
v -1 0.5 7.2
v -1 0.5 7
v -0.9 0 7.4
v -0.9 0 7.2
v -0.9 0.1 7.4
v -0.9 0.1 7.2
v -0.9 0.4 7.4
v -0.9 0.4 7.2
v -0.9 0.4 7
v -0.9 0.4 6.8
v -0.9 0.5 7
v -0.9 0.5 6.8
v -0.8 0 7.2
v -0.8 0 7
v -0.8 0.1 7.2
v -0.8 0.1 7
v -0.8 0.4 7.2
v -0.8 0.4 7
v -0.8 0.4 6.8
v -0.8 0.4 6.6
v -0.8 0.5 6.8
v -0.8 0.5 6.6
v -0.7 0 7
v -0.7 0 6.8
v -0.7 0.1 7
v -0.7 0.1 6.8
v -0.7 0.4 7
v -0.7 0.4 6.8
v -0.7 0.4 6.6
v -0.7 0.4 6.4
v -0.7 0.5 6.6
v -0.7 0.5 6.4
v -0.6 0 6.8
v -0.6 0 6.6
v -0.6 0.1 6.8
v -0.6 0.1 6.6
v -0.6 0.4 6.8
v -0.6 0.4 6.6
v -0.5 0 6.6
v -0.5 0 6.4
v -0.5 0.1 6.6
v -0.5 0.1 6.4
v -0.5 0.4 6.6
v -0.5 0.4 6.4
v -1.2 0 7.6
v -1.2 0.1 7.6
v -1.2 0.4 7.6
v -1 0 7.6
v -1 0.1 7.6
v -1 0.4 7.6
v -1.3 0 7.4
v -1.3 0.1 7.4
v -1.3 0.4 7.4
v -1.2 0 7.4
v -1.2 0.1 7.4
v -1.2 0.4 7.4
v -1 0 7.4
v -1 0.1 7.4
v -1 0.4 7.4
v -0.9 0 7.4
v -0.9 0.1 7.4
v -0.9 0.4 7.4
v -1.4 0 7.2
v -1.4 0.1 7.2
v -1.4 0.4 7.2
v -1.3 0 7.2
v -1.3 0.1 7.2
v -1.3 0.4 7.2
v -1.2 0.4 7.2
v -1.2 0.5 7.2
v -1 0.4 7.2
v -1 0.5 7.2
v -0.9 0 7.2
v -0.9 0.1 7.2
v -0.9 0.4 7.2
v -0.8 0 7.2
v -0.8 0.1 7.2
v -0.8 0.4 7.2
v -1.5 0 7
v -1.5 0.1 7
v -1.5 0.4 7
v -1.4 0 7
v -1.4 0.1 7
v -1.4 0.4 7
v -1.3 0.4 7
v -1.3 0.5 7
v -1.2 0.4 7
v -1.2 0.5 7
v -1 0.4 7
v -1 0.5 7
v -0.9 0.4 7
v -0.9 0.5 7
v -0.8 0 7
v -0.8 0.1 7
v -0.8 0.4 7
v -0.7 0 7
v -0.7 0.1 7
v -0.7 0.4 7
v -1.6 0 6.8
v -1.6 0.1 6.8
v -1.6 0.4 6.8
v -1.5 0 6.8
v -1.5 0.1 6.8
v -1.5 0.4 6.8
v -1.4 0.4 6.8
v -1.4 0.5 6.8
v -1.3 0.4 6.8
v -1.3 0.5 6.8
v -0.9 0.4 6.8
v -0.9 0.5 6.8
v -0.8 0.4 6.8
v -0.8 0.5 6.8
v -0.7 0 6.8
v -0.7 0.1 6.8
v -0.7 0.4 6.8
v -0.6 0 6.8
v -0.6 0.1 6.8
v -0.6 0.4 6.8
v -1.7 0 6.6
v -1.7 0.1 6.6
v -1.7 0.4 6.6
v -1.6 0 6.6
v -1.6 0.1 6.6
v -1.6 0.4 6.6
v -1.5 0.4 6.6
v -1.5 0.5 6.6
v -1.4 0.4 6.6
v -1.4 0.5 6.6
v -0.8 0.4 6.6
v -0.8 0.5 6.6
v -0.7 0.4 6.6
v -0.7 0.5 6.6
v -0.6 0 6.6
v -0.6 0.1 6.6
v -0.6 0.4 6.6
v -0.5 0 6.6
v -0.5 0.1 6.6
v -0.5 0.4 6.6
v -1.7 0 6.4
v -1.7 0.1 6.4
v -1.7 0.4 6.4
v -1.5 0.1 6.4
v -1.5 0.4 6.4
v -1.5 0.5 6.4
v -0.7 0.1 6.4
v -0.7 0.4 6.4
v -0.7 0.5 6.4
v -0.5 0 6.4
v -0.5 0.1 6.4
v -0.5 0.4 6.4
v -1.2 0 7.6
v -1 0 7.6
v -1.3 0 7.4
v -1.2 0 7.4
v -1 0 7.4
v -0.9 0 7.4
v -1.4 0 7.2
v -1.3 0 7.2
v -0.9 0 7.2
v -0.8 0 7.2
v -1.5 0 7
v -1.4 0 7
v -0.8 0 7
v -0.7 0 7
v -1.6 0 6.8
v -1.5 0 6.8
v -0.7 0 6.8
v -0.6 0 6.8
v -1.7 0 6.6
v -1.6 0 6.6
v -0.6 0 6.6
v -0.5 0 6.6
v -1.7 0 6.4
v -0.5 0 6.4
v -1.2 0.4 7.6
v -1 0.4 7.6
v -1.3 0.4 7.4
v -1.2 0.4 7.4
v -1 0.4 7.4
v -0.9 0.4 7.4
v -1.4 0.4 7.2
v -1.3 0.4 7.2
v -1.2 0.4 7.2
v -1 0.4 7.2
v -0.9 0.4 7.2
v -0.8 0.4 7.2
v -1.5 0.4 7
v -1.4 0.4 7
v -1.3 0.4 7
v -1.2 0.4 7
v -1 0.4 7
v -0.9 0.4 7
v -0.8 0.4 7
v -0.7 0.4 7
v -1.6 0.4 6.8
v -1.5 0.4 6.8
v -1.4 0.4 6.8
v -1.3 0.4 6.8
v -0.9 0.4 6.8
v -0.8 0.4 6.8
v -0.7 0.4 6.8
v -0.6 0.4 6.8
v -1.7 0.4 6.6
v -1.6 0.4 6.6
v -1.5 0.4 6.6
v -1.4 0.4 6.6
v -0.8 0.4 6.6
v -0.7 0.4 6.6
v -0.6 0.4 6.6
v -0.5 0.4 6.6
v -1.7 0.4 6.4
v -1.5 0.4 6.4
v -0.7 0.4 6.4
v -0.5 0.4 6.4
v -1.2 0.5 7.2
v -1 0.5 7.2
v -1.3 0.5 7
v -1.2 0.5 7
v -1 0.5 7
v -0.9 0.5 7
v -1.4 0.5 6.8
v -1.3 0.5 6.8
v -0.9 0.5 6.8
v -0.8 0.5 6.8
v -1.5 0.5 6.6
v -1.4 0.5 6.6
v -0.8 0.5 6.6
v -0.7 0.5 6.6
v -1.5 0.5 6.4
v -0.7 0.5 6.4

# faces
f 3/1/1 2/1/1 1/1/1
f 4/1/1 2/1/1 3/1/1
f 5/2/1 4/2/1 3/2/1
f 6/2/1 4/2/1 5/2/1
f 9/1/1 8/1/1 7/1/1
f 10/1/1 8/1/1 9/1/1
f 11/2/1 10/2/1 9/2/1
f 12/2/1 10/2/1 11/2/1
f 15/1/1 14/1/1 13/1/1
f 16/1/1 14/1/1 15/1/1
f 17/2/1 16/2/1 15/2/1
f 18/2/1 16/2/1 17/2/1
f 21/3/1 20/3/1 19/3/1
f 22/3/1 20/3/1 21/3/1
f 25/1/1 24/1/1 23/1/1
f 26/1/1 24/1/1 25/1/1
f 27/2/1 26/2/1 25/2/1
f 28/2/1 26/2/1 27/2/1
f 31/3/1 30/3/1 29/3/1
f 32/3/1 30/3/1 31/3/1
f 35/1/1 34/1/1 33/1/1
f 36/1/1 34/1/1 35/1/1
f 37/2/1 36/2/1 35/2/1
f 38/2/1 36/2/1 37/2/1
f 41/3/1 40/3/1 39/3/1
f 42/3/1 40/3/1 41/3/1
f 45/1/1 44/1/1 43/1/1
f 46/1/1 44/1/1 45/1/1
f 47/2/1 46/2/1 45/2/1
f 48/2/1 46/2/1 47/2/1
f 51/3/1 50/3/1 49/3/1
f 52/3/1 50/3/1 51/3/1
f 53/1/2 54/1/2 55/1/2
f 55/1/2 54/1/2 56/1/2
f 55/2/2 56/2/2 57/2/2
f 57/2/2 56/2/2 58/2/2
f 59/3/2 60/3/2 61/3/2
f 61/3/2 60/3/2 62/3/2
f 63/1/2 64/1/2 65/1/2
f 65/1/2 64/1/2 66/1/2
f 65/2/2 66/2/2 67/2/2
f 67/2/2 66/2/2 68/2/2
f 69/3/2 70/3/2 71/3/2
f 71/3/2 70/3/2 72/3/2
f 73/1/2 74/1/2 75/1/2
f 75/1/2 74/1/2 76/1/2
f 75/2/2 76/2/2 77/2/2
f 77/2/2 76/2/2 78/2/2
f 79/3/2 80/3/2 81/3/2
f 81/3/2 80/3/2 82/3/2
f 83/1/2 84/1/2 85/1/2
f 85/1/2 84/1/2 86/1/2
f 85/2/2 86/2/2 87/2/2
f 87/2/2 86/2/2 88/2/2
f 89/3/2 90/3/2 91/3/2
f 91/3/2 90/3/2 92/3/2
f 93/1/2 94/1/2 95/1/2
f 95/1/2 94/1/2 96/1/2
f 95/2/2 96/2/2 97/2/2
f 97/2/2 96/2/2 98/2/2
f 99/1/2 100/1/2 101/1/2
f 101/1/2 100/1/2 102/1/2
f 101/2/2 102/2/2 103/2/2
f 103/2/2 102/2/2 104/2/2
f 108/1/3 106/1/3 105/1/3
f 109/2/3 107/2/3 106/2/3
f 109/1/3 106/1/3 108/1/3
f 110/2/3 107/2/3 109/2/3
f 114/1/3 112/1/3 111/1/3
f 115/2/3 113/2/3 112/2/3
f 115/1/3 112/1/3 114/1/3
f 116/2/3 113/2/3 115/2/3
f 120/1/3 118/1/3 117/1/3
f 121/2/3 119/2/3 118/2/3
f 121/1/3 118/1/3 120/1/3
f 122/2/3 119/2/3 121/2/3
f 126/1/3 124/1/3 123/1/3
f 127/2/3 125/2/3 124/2/3
f 127/1/3 124/1/3 126/1/3
f 128/2/3 125/2/3 127/2/3
f 131/3/3 130/3/3 129/3/3
f 132/3/3 130/3/3 131/3/3
f 136/1/3 134/1/3 133/1/3
f 137/2/3 135/2/3 134/2/3
f 137/1/3 134/1/3 136/1/3
f 138/2/3 135/2/3 137/2/3
f 142/1/3 140/1/3 139/1/3
f 143/2/3 141/2/3 140/2/3
f 143/1/3 140/1/3 142/1/3
f 144/2/3 141/2/3 143/2/3
f 147/3/3 146/3/3 145/3/3
f 148/3/3 146/3/3 147/3/3
f 151/3/3 150/3/3 149/3/3
f 152/3/3 150/3/3 151/3/3
f 156/1/3 154/1/3 153/1/3
f 157/2/3 155/2/3 154/2/3
f 157/1/3 154/1/3 156/1/3
f 158/2/3 155/2/3 157/2/3
f 162/1/3 160/1/3 159/1/3
f 163/2/3 161/2/3 160/2/3
f 163/1/3 160/1/3 162/1/3
f 164/2/3 161/2/3 163/2/3
f 167/3/3 166/3/3 165/3/3
f 168/3/3 166/3/3 167/3/3
f 171/3/3 170/3/3 169/3/3
f 172/3/3 170/3/3 171/3/3
f 176/1/3 174/1/3 173/1/3
f 177/2/3 175/2/3 174/2/3
f 177/1/3 174/1/3 176/1/3
f 178/2/3 175/2/3 177/2/3
f 182/1/3 180/1/3 179/1/3
f 183/2/3 181/2/3 180/2/3
f 183/1/3 180/1/3 182/1/3
f 184/2/3 181/2/3 183/2/3
f 187/3/3 186/3/3 185/3/3
f 188/3/3 186/3/3 187/3/3
f 191/3/3 190/3/3 189/3/3
f 192/3/3 190/3/3 191/3/3
f 196/1/3 194/1/3 193/1/3
f 197/2/3 195/2/3 194/2/3
f 197/1/3 194/1/3 196/1/3
f 198/2/3 195/2/3 197/2/3
f 199/1/4 200/1/4 202/1/4
f 200/2/4 201/2/4 202/2/4
f 202/2/4 201/2/4 203/2/4
f 199/1/4 202/1/4 205/1/4
f 203/3/4 204/3/4 205/3/4
f 202/3/4 203/3/4 205/3/4
f 205/3/4 204/3/4 206/3/4
f 206/3/4 204/3/4 207/3/4
f 199/1/4 205/1/4 208/1/4
f 205/2/4 206/2/4 209/2/4
f 208/1/4 205/1/4 209/1/4
f 209/2/4 206/2/4 210/2/4
f 214/1/5 212/1/5 211/1/5
f 215/1/5 212/1/5 214/1/5
f 218/1/5 214/1/5 213/1/5
f 218/1/5 216/1/5 215/1/5
f 218/1/5 215/1/5 214/1/5
f 219/1/5 216/1/5 218/1/5
f 222/1/5 218/1/5 217/1/5
f 222/1/5 220/1/5 219/1/5
f 222/1/5 219/1/5 218/1/5
f 223/1/5 220/1/5 222/1/5
f 226/1/5 222/1/5 221/1/5
f 226/1/5 224/1/5 223/1/5
f 226/1/5 223/1/5 222/1/5
f 227/1/5 224/1/5 226/1/5
f 230/1/5 226/1/5 225/1/5
f 230/1/5 228/1/5 227/1/5
f 230/1/5 227/1/5 226/1/5
f 231/1/5 228/1/5 230/1/5
f 233/1/5 230/1/5 229/1/5
f 233/1/5 232/1/5 231/1/5
f 233/1/5 231/1/5 230/1/5
f 234/1/5 232/1/5 233/1/5
f 235/2/6 236/2/6 238/2/6
f 238/2/6 236/2/6 239/2/6
f 237/2/6 238/2/6 242/2/6
f 239/2/6 240/2/6 242/2/6
f 238/2/6 239/2/6 242/2/6
f 242/2/6 240/2/6 243/2/6
f 243/2/6 240/2/6 244/2/6
f 244/2/6 240/2/6 245/2/6
f 241/2/6 242/2/6 248/2/6
f 242/2/6 243/2/6 248/2/6
f 248/2/6 243/2/6 249/2/6
f 249/2/6 243/2/6 250/2/6
f 244/2/6 245/2/6 251/2/6
f 245/2/6 246/2/6 251/2/6
f 251/2/6 246/2/6 252/2/6
f 252/2/6 246/2/6 253/2/6
f 248/2/6 249/2/6 256/2/6
f 247/2/6 248/2/6 256/2/6
f 256/2/6 249/2/6 257/2/6
f 257/2/6 249/2/6 258/2/6
f 253/2/6 254/2/6 259/2/6
f 252/2/6 253/2/6 259/2/6
f 259/2/6 254/2/6 260/2/6
f 260/2/6 254/2/6 261/2/6
f 256/2/6 257/2/6 264/2/6
f 255/2/6 256/2/6 264/2/6
f 264/2/6 257/2/6 265/2/6
f 265/2/6 257/2/6 266/2/6
f 261/2/6 262/2/6 267/2/6
f 260/2/6 261/2/6 267/2/6
f 267/2/6 262/2/6 268/2/6
f 268/2/6 262/2/6 269/2/6
f 264/2/6 265/2/6 271/2/6
f 263/2/6 264/2/6 271/2/6
f 271/2/6 265/2/6 272/2/6
f 269/2/6 270/2/6 273/2/6
f 268/2/6 269/2/6 273/2/6
f 273/2/6 270/2/6 274/2/6
f 275/3/6 276/3/6 278/3/6
f 278/3/6 276/3/6 279/3/6
f 277/3/6 278/3/6 282/3/6
f 279/3/6 280/3/6 282/3/6
f 278/3/6 279/3/6 282/3/6
f 282/3/6 280/3/6 283/3/6
f 281/3/6 282/3/6 286/3/6
f 283/3/6 284/3/6 286/3/6
f 282/3/6 283/3/6 286/3/6
f 286/3/6 284/3/6 287/3/6
f 285/3/6 286/3/6 289/3/6
f 287/3/6 288/3/6 289/3/6
f 286/3/6 287/3/6 289/3/6
f 289/3/6 288/3/6 290/3/6
