# MagicaVoxel @ Ephtracy

# group
o 

# material
mtllib menu_button.mtl
usemtl palette

# normals
vn -1 0 0
vn 1 0 0
vn 0 0 1
vn 0 0 -1
vn 0 -1 0
vn 0 1 0

# texcoords
vt 0.908203 0.5
vt 0.912109 0.5
vt 0.943359 0.5

# verts
v -3 0.3 0.1
v -3 0.3 -0.3
v -3 1 0.1
v -3 1 -0.3
v -2.9 0.2 0.1
v -2.9 0.2 -0.3
v -2.9 0.3 0.1
v -2.9 0.3 -0.3
v -2.9 1 0.1
v -2.9 1 -0.3
v -2.9 1.1 0.1
v -2.9 1.1 -0.3
v -2.8 0.1 0.1
v -2.8 0.1 -0.3
v -2.8 0.2 0.1
v -2.8 0.2 -0.3
v -2.8 1.1 0.1
v -2.8 1.1 -0.3
v -2.8 1.2 0.1
v -2.8 1.2 -0.3
v -2.6 0 0.1
v -2.6 0 -0.3
v -2.6 0.1 0.1
v -2.6 0.1 -0.3
v -2.6 1.2 0.1
v -2.6 1.2 -0.3
v -2.6 1.3 0.1
v -2.6 1.3 -0.3
v 2.6 0.1 0.1
v 2.6 0.1 0
v 2.6 0.1 -0.2
v 2.6 0.1 -0.3
v 2.6 0.2 0.1
v 2.6 0.2 0
v 2.6 0.2 -0.2
v 2.6 0.2 -0.3
v 2.6 1.1 0.1
v 2.6 1.1 0
v 2.6 1.1 -0.2
v 2.6 1.1 -0.3
v 2.6 1.2 0.1
v 2.6 1.2 0
v 2.6 1.2 -0.2
v 2.6 1.2 -0.3
v 2.8 0.2 0.1
v 2.8 0.2 0
v 2.8 0.2 -0.2
v 2.8 0.2 -0.3
v 2.8 0.3 0.1
v 2.8 0.3 0
v 2.8 0.3 -0.2
v 2.8 0.3 -0.3
v 2.8 1 0.1
v 2.8 1 0
v 2.8 1 -0.2
v 2.8 1 -0.3
v 2.8 1.1 0.1
v 2.8 1.1 0
v 2.8 1.1 -0.2
v 2.8 1.1 -0.3
v 2.9 0.3 0.1
v 2.9 0.3 0
v 2.9 0.3 -0.2
v 2.9 0.3 -0.3
v 2.9 1 0.1
v 2.9 1 0
v 2.9 1 -0.2
v 2.9 1 -0.3
v -2.9 0.3 0.1
v -2.9 0.3 0
v -2.9 0.3 -0.2
v -2.9 0.3 -0.3
v -2.9 1 0.1
v -2.9 1 0
v -2.9 1 -0.2
v -2.9 1 -0.3
v -2.8 0.2 0.1
v -2.8 0.2 0
v -2.8 0.2 -0.2
v -2.8 0.2 -0.3
v -2.8 0.3 0.1
v -2.8 0.3 0
v -2.8 0.3 -0.2
v -2.8 0.3 -0.3
v -2.8 1 0.1
v -2.8 1 0
v -2.8 1 -0.2
v -2.8 1 -0.3
v -2.8 1.1 0.1
v -2.8 1.1 0
v -2.8 1.1 -0.2
v -2.8 1.1 -0.3
v -2.6 0.1 0.1
v -2.6 0.1 0
v -2.6 0.1 -0.2
v -2.6 0.1 -0.3
v -2.6 0.2 0.1
v -2.6 0.2 0
v -2.6 0.2 -0.2
v -2.6 0.2 -0.3
v -2.6 1.1 0.1
v -2.6 1.1 0
v -2.6 1.1 -0.2
v -2.6 1.1 -0.3
v -2.6 1.2 0.1
v -2.6 1.2 0
v -2.6 1.2 -0.2
v -2.6 1.2 -0.3
v 2.6 0 0.1
v 2.6 0 -0.3
v 2.6 0.1 0.1
v 2.6 0.1 -0.3
v 2.6 1.2 0.1
v 2.6 1.2 -0.3
v 2.6 1.3 0.1
v 2.6 1.3 -0.3
v 2.8 0.1 0.1
v 2.8 0.1 -0.3
v 2.8 0.2 0.1
v 2.8 0.2 -0.3
v 2.8 1.1 0.1
v 2.8 1.1 -0.3
v 2.8 1.2 0.1
v 2.8 1.2 -0.3
v 2.9 0.2 0.1
v 2.9 0.2 -0.3
v 2.9 0.3 0.1
v 2.9 0.3 -0.3
v 2.9 1 0.1
v 2.9 1 -0.3
v 2.9 1.1 0.1
v 2.9 1.1 -0.3
v 3 0.3 0.1
v 3 0.3 -0.3
v 3 1 0.1
v 3 1 -0.3
v -3 0.3 0.1
v -3 1 0.1
v -2.9 0.2 0.1
v -2.9 0.3 0.1
v -2.9 1 0.1
v -2.9 1.1 0.1
v -2.8 0.1 0.1
v -2.8 0.2 0.1
v -2.8 0.3 0.1
v -2.8 1 0.1
v -2.8 1.1 0.1
v -2.8 1.2 0.1
v -2.6 0 0.1
v -2.6 0.1 0.1
v -2.6 0.2 0.1
v -2.6 1.1 0.1
v -2.6 1.2 0.1
v -2.6 1.3 0.1
v 2.6 0 0.1
v 2.6 0.1 0.1
v 2.6 0.2 0.1
v 2.6 1.1 0.1
v 2.6 1.2 0.1
v 2.6 1.3 0.1
v 2.8 0.1 0.1
v 2.8 0.2 0.1
v 2.8 0.3 0.1
v 2.8 1 0.1
v 2.8 1.1 0.1
v 2.8 1.2 0.1
v 2.9 0.2 0.1
v 2.9 0.3 0.1
v 2.9 1 0.1
v 2.9 1.1 0.1
v 3 0.3 0.1
v 3 1 0.1
v -2.9 0.3 0
v -2.9 1 0
v -2.8 0.2 0
v -2.8 0.3 0
v -2.8 1 0
v -2.8 1.1 0
v -2.6 0.1 0
v -2.6 0.2 0
v -2.6 1.1 0
v -2.6 1.2 0
v 2.6 0.1 0
v 2.6 0.2 0
v 2.6 1.1 0
v 2.6 1.2 0
v 2.8 0.2 0
v 2.8 0.3 0
v 2.8 1 0
v 2.8 1.1 0
v 2.9 0.3 0
v 2.9 1 0
v -2.9 0.3 -0.2
v -2.9 1 -0.2
v -2.8 0.2 -0.2
v -2.8 0.3 -0.2
v -2.8 1 -0.2
v -2.8 1.1 -0.2
v -2.6 0.1 -0.2
v -2.6 0.2 -0.2
v -2.6 1.1 -0.2
v -2.6 1.2 -0.2
v 2.6 0.1 -0.2
v 2.6 0.2 -0.2
v 2.6 1.1 -0.2
v 2.6 1.2 -0.2
v 2.8 0.2 -0.2
v 2.8 0.3 -0.2
v 2.8 1 -0.2
v 2.8 1.1 -0.2
v 2.9 0.3 -0.2
v 2.9 1 -0.2
v -3 0.3 -0.3
v -3 1 -0.3
v -2.9 0.2 -0.3
v -2.9 0.3 -0.3
v -2.9 1 -0.3
v -2.9 1.1 -0.3
v -2.8 0.1 -0.3
v -2.8 0.2 -0.3
v -2.8 0.3 -0.3
v -2.8 1 -0.3
v -2.8 1.1 -0.3
v -2.8 1.2 -0.3
v -2.6 0 -0.3
v -2.6 0.1 -0.3
v -2.6 0.2 -0.3
v -2.6 1.1 -0.3
v -2.6 1.2 -0.3
v -2.6 1.3 -0.3
v 2.6 0 -0.3
v 2.6 0.1 -0.3
v 2.6 0.2 -0.3
v 2.6 1.1 -0.3
v 2.6 1.2 -0.3
v 2.6 1.3 -0.3
v 2.8 0.1 -0.3
v 2.8 0.2 -0.3
v 2.8 0.3 -0.3
v 2.8 1 -0.3
v 2.8 1.1 -0.3
v 2.8 1.2 -0.3
v 2.9 0.2 -0.3
v 2.9 0.3 -0.3
v 2.9 1 -0.3
v 2.9 1.1 -0.3
v 3 0.3 -0.3
v 3 1 -0.3
v -2.6 0 0.1
v 2.6 0 0.1
v -2.6 0 -0.3
v 2.6 0 -0.3
v -2.8 0.1 0.1
v -2.6 0.1 0.1
v 2.6 0.1 0.1
v 2.8 0.1 0.1
v -2.8 0.1 -0.3
v -2.6 0.1 -0.3
v 2.6 0.1 -0.3
v 2.8 0.1 -0.3
v -2.9 0.2 0.1
v -2.8 0.2 0.1
v 2.8 0.2 0.1
v 2.9 0.2 0.1
v -2.9 0.2 -0.3
v -2.8 0.2 -0.3
v 2.8 0.2 -0.3
v 2.9 0.2 -0.3
v -3 0.3 0.1
v -2.9 0.3 0.1
v 2.9 0.3 0.1
v 3 0.3 0.1
v -3 0.3 -0.3
v -2.9 0.3 -0.3
v 2.9 0.3 -0.3
v 3 0.3 -0.3
v -2.9 1 0.1
v -2.8 1 0.1
v 2.8 1 0.1
v 2.9 1 0.1
v -2.9 1 0
v -2.8 1 0
v 2.8 1 0
v 2.9 1 0
v -2.9 1 -0.2
v -2.8 1 -0.2
v 2.8 1 -0.2
v 2.9 1 -0.2
v -2.9 1 -0.3
v -2.8 1 -0.3
v 2.8 1 -0.3
v 2.9 1 -0.3
v -2.8 1.1 0.1
v -2.6 1.1 0.1
v 2.6 1.1 0.1
v 2.8 1.1 0.1
v -2.8 1.1 0
v -2.6 1.1 0
v 2.6 1.1 0
v 2.8 1.1 0
v -2.8 1.1 -0.2
v -2.6 1.1 -0.2
v 2.6 1.1 -0.2
v 2.8 1.1 -0.2
v -2.8 1.1 -0.3
v -2.6 1.1 -0.3
v 2.6 1.1 -0.3
v 2.8 1.1 -0.3
v -2.6 1.2 0.1
v 2.6 1.2 0.1
v -2.6 1.2 0
v 2.6 1.2 0
v -2.6 1.2 -0.2
v 2.6 1.2 -0.2
v -2.6 1.2 -0.3
v 2.6 1.2 -0.3
v -2.6 0.1 0.1
v 2.6 0.1 0.1
v -2.6 0.1 0
v 2.6 0.1 0
v -2.6 0.1 -0.2
v 2.6 0.1 -0.2
v -2.6 0.1 -0.3
v 2.6 0.1 -0.3
v -2.8 0.2 0.1
v -2.6 0.2 0.1
v 2.6 0.2 0.1
v 2.8 0.2 0.1
v -2.8 0.2 0
v -2.6 0.2 0
v 2.6 0.2 0
v 2.8 0.2 0
v -2.8 0.2 -0.2
v -2.6 0.2 -0.2
v 2.6 0.2 -0.2
v 2.8 0.2 -0.2
v -2.8 0.2 -0.3
v -2.6 0.2 -0.3
v 2.6 0.2 -0.3
v 2.8 0.2 -0.3
v -2.9 0.3 0.1
v -2.8 0.3 0.1
v 2.8 0.3 0.1
v 2.9 0.3 0.1
v -2.9 0.3 0
v -2.8 0.3 0
v 2.8 0.3 0
v 2.9 0.3 0
v -2.9 0.3 -0.2
v -2.8 0.3 -0.2
v 2.8 0.3 -0.2
v 2.9 0.3 -0.2
v -2.9 0.3 -0.3
v -2.8 0.3 -0.3
v 2.8 0.3 -0.3
v 2.9 0.3 -0.3
v -3 1 0.1
v -2.9 1 0.1
v 2.9 1 0.1
v 3 1 0.1
v -3 1 -0.3
v -2.9 1 -0.3
v 2.9 1 -0.3
v 3 1 -0.3
v -2.9 1.1 0.1
v -2.8 1.1 0.1
v 2.8 1.1 0.1
v 2.9 1.1 0.1
v -2.9 1.1 -0.3
v -2.8 1.1 -0.3
v 2.8 1.1 -0.3
v 2.9 1.1 -0.3
v -2.8 1.2 0.1
v -2.6 1.2 0.1
v 2.6 1.2 0.1
v 2.8 1.2 0.1
v -2.8 1.2 -0.3
v -2.6 1.2 -0.3
v 2.6 1.2 -0.3
v 2.8 1.2 -0.3
v -2.6 1.3 0.1
v 2.6 1.3 0.1
v -2.6 1.3 -0.3
v 2.6 1.3 -0.3

# faces
f 3/3/1 2/3/1 1/3/1
f 4/3/1 2/3/1 3/3/1
f 7/3/1 6/3/1 5/3/1
f 8/3/1 6/3/1 7/3/1
f 11/3/1 10/3/1 9/3/1
f 12/3/1 10/3/1 11/3/1
f 15/3/1 14/3/1 13/3/1
f 16/3/1 14/3/1 15/3/1
f 19/3/1 18/3/1 17/3/1
f 20/3/1 18/3/1 19/3/1
f 23/3/1 22/3/1 21/3/1
f 24/3/1 22/3/1 23/3/1
f 27/3/1 26/3/1 25/3/1
f 28/3/1 26/3/1 27/3/1
f 33/3/1 30/3/1 29/3/1
f 34/3/1 30/3/1 33/3/1
f 35/3/1 32/3/1 31/3/1
f 36/3/1 32/3/1 35/3/1
f 41/3/1 38/3/1 37/3/1
f 42/3/1 38/3/1 41/3/1
f 43/3/1 40/3/1 39/3/1
f 44/3/1 40/3/1 43/3/1
f 49/3/1 46/3/1 45/3/1
f 50/3/1 46/3/1 49/3/1
f 51/3/1 48/3/1 47/3/1
f 52/3/1 48/3/1 51/3/1
f 57/3/1 54/3/1 53/3/1
f 58/3/1 54/3/1 57/3/1
f 59/3/1 56/3/1 55/3/1
f 60/3/1 56/3/1 59/3/1
f 65/3/1 62/3/1 61/3/1
f 66/3/1 62/3/1 65/3/1
f 67/3/1 64/3/1 63/3/1
f 68/3/1 64/3/1 67/3/1
f 69/3/2 70/3/2 73/3/2
f 73/3/2 70/3/2 74/3/2
f 71/3/2 72/3/2 75/3/2
f 75/3/2 72/3/2 76/3/2
f 77/3/2 78/3/2 81/3/2
f 81/3/2 78/3/2 82/3/2
f 79/3/2 80/3/2 83/3/2
f 83/3/2 80/3/2 84/3/2
f 85/3/2 86/3/2 89/3/2
f 89/3/2 86/3/2 90/3/2
f 87/3/2 88/3/2 91/3/2
f 91/3/2 88/3/2 92/3/2
f 93/3/2 94/3/2 97/3/2
f 97/3/2 94/3/2 98/3/2
f 95/3/2 96/3/2 99/3/2
f 99/3/2 96/3/2 100/3/2
f 101/3/2 102/3/2 105/3/2
f 105/3/2 102/3/2 106/3/2
f 103/3/2 104/3/2 107/3/2
f 107/3/2 104/3/2 108/3/2
f 109/3/2 110/3/2 111/3/2
f 111/3/2 110/3/2 112/3/2
f 113/3/2 114/3/2 115/3/2
f 115/3/2 114/3/2 116/3/2
f 117/3/2 118/3/2 119/3/2
f 119/3/2 118/3/2 120/3/2
f 121/3/2 122/3/2 123/3/2
f 123/3/2 122/3/2 124/3/2
f 125/3/2 126/3/2 127/3/2
f 127/3/2 126/3/2 128/3/2
f 129/3/2 130/3/2 131/3/2
f 131/3/2 130/3/2 132/3/2
f 133/3/2 134/3/2 135/3/2
f 135/3/2 134/3/2 136/3/2
f 140/3/3 138/3/3 137/3/3
f 141/3/3 138/3/3 140/3/3
f 144/3/3 140/3/3 139/3/3
f 145/3/3 140/3/3 144/3/3
f 146/3/3 142/3/3 141/3/3
f 147/3/3 142/3/3 146/3/3
f 150/3/3 144/3/3 143/3/3
f 151/3/3 144/3/3 150/3/3
f 152/3/3 148/3/3 147/3/3
f 153/3/3 148/3/3 152/3/3
f 155/3/3 150/3/3 149/3/3
f 156/3/3 150/3/3 155/3/3
f 159/3/3 154/3/3 153/3/3
f 160/3/3 154/3/3 159/3/3
f 161/3/3 157/3/3 156/3/3
f 162/3/3 157/3/3 161/3/3
f 165/3/3 159/3/3 158/3/3
f 166/3/3 159/3/3 165/3/3
f 167/3/3 163/3/3 162/3/3
f 168/3/3 163/3/3 167/3/3
f 169/3/3 165/3/3 164/3/3
f 170/3/3 165/3/3 169/3/3
f 171/3/3 169/3/3 168/3/3
f 172/3/3 169/3/3 171/3/3
f 176/1/3 174/1/3 173/1/3
f 177/1/3 174/1/3 176/1/3
f 180/1/3 176/1/3 175/1/3
f 180/1/3 178/1/3 177/1/3
f 180/1/3 177/1/3 176/1/3
f 181/1/3 178/1/3 180/1/3
f 183/1/3 180/1/3 179/1/3
f 183/1/3 182/1/3 181/1/3
f 183/1/3 181/1/3 180/1/3
f 184/1/3 182/1/3 183/1/3
f 185/1/3 182/1/3 184/1/3
f 186/1/3 182/1/3 185/1/3
f 187/1/3 185/1/3 184/1/3
f 188/1/3 185/1/3 187/1/3
f 189/1/3 185/1/3 188/1/3
f 190/1/3 185/1/3 189/1/3
f 191/1/3 189/1/3 188/1/3
f 192/1/3 189/1/3 191/1/3
f 193/2/4 194/2/4 196/2/4
f 196/2/4 194/2/4 197/2/4
f 195/2/4 196/2/4 200/2/4
f 197/2/4 198/2/4 200/2/4
f 196/2/4 197/2/4 200/2/4
f 200/2/4 198/2/4 201/2/4
f 199/2/4 200/2/4 203/2/4
f 201/2/4 202/2/4 203/2/4
f 200/2/4 201/2/4 203/2/4
f 203/2/4 202/2/4 204/2/4
f 204/2/4 202/2/4 205/2/4
f 205/2/4 202/2/4 206/2/4
f 204/2/4 205/2/4 207/2/4
f 207/2/4 205/2/4 208/2/4
f 208/2/4 205/2/4 209/2/4
f 209/2/4 205/2/4 210/2/4
f 208/2/4 209/2/4 211/2/4
f 211/2/4 209/2/4 212/2/4
f 213/3/4 214/3/4 216/3/4
f 216/3/4 214/3/4 217/3/4
f 215/3/4 216/3/4 220/3/4
f 220/3/4 216/3/4 221/3/4
f 217/3/4 218/3/4 222/3/4
f 222/3/4 218/3/4 223/3/4
f 219/3/4 220/3/4 226/3/4
f 226/3/4 220/3/4 227/3/4
f 223/3/4 224/3/4 228/3/4
f 228/3/4 224/3/4 229/3/4
f 225/3/4 226/3/4 231/3/4
f 231/3/4 226/3/4 232/3/4
f 229/3/4 230/3/4 235/3/4
f 235/3/4 230/3/4 236/3/4
f 232/3/4 233/3/4 237/3/4
f 237/3/4 233/3/4 238/3/4
f 234/3/4 235/3/4 241/3/4
f 241/3/4 235/3/4 242/3/4
f 238/3/4 239/3/4 243/3/4
f 243/3/4 239/3/4 244/3/4
f 240/3/4 241/3/4 245/3/4
f 245/3/4 241/3/4 246/3/4
f 244/3/4 245/3/4 247/3/4
f 247/3/4 245/3/4 248/3/4
f 251/3/5 250/3/5 249/3/5
f 252/3/5 250/3/5 251/3/5
f 257/3/5 254/3/5 253/3/5
f 258/3/5 254/3/5 257/3/5
f 259/3/5 256/3/5 255/3/5
f 260/3/5 256/3/5 259/3/5
f 265/3/5 262/3/5 261/3/5
f 266/3/5 262/3/5 265/3/5
f 267/3/5 264/3/5 263/3/5
f 268/3/5 264/3/5 267/3/5
f 273/3/5 270/3/5 269/3/5
f 274/3/5 270/3/5 273/3/5
f 275/3/5 272/3/5 271/3/5
f 276/3/5 272/3/5 275/3/5
f 281/3/5 278/3/5 277/3/5
f 282/3/5 278/3/5 281/3/5
f 283/3/5 280/3/5 279/3/5
f 284/3/5 280/3/5 283/3/5
f 289/3/5 286/3/5 285/3/5
f 290/3/5 286/3/5 289/3/5
f 291/3/5 288/3/5 287/3/5
f 292/3/5 288/3/5 291/3/5
f 297/3/5 294/3/5 293/3/5
f 298/3/5 294/3/5 297/3/5
f 299/3/5 296/3/5 295/3/5
f 300/3/5 296/3/5 299/3/5
f 305/3/5 302/3/5 301/3/5
f 306/3/5 302/3/5 305/3/5
f 307/3/5 304/3/5 303/3/5
f 308/3/5 304/3/5 307/3/5
f 311/3/5 310/3/5 309/3/5
f 312/3/5 310/3/5 311/3/5
f 315/3/5 314/3/5 313/3/5
f 316/3/5 314/3/5 315/3/5
f 317/3/6 318/3/6 319/3/6
f 319/3/6 318/3/6 320/3/6
f 321/3/6 322/3/6 323/3/6
f 323/3/6 322/3/6 324/3/6
f 325/3/6 326/3/6 329/3/6
f 329/3/6 326/3/6 330/3/6
f 327/3/6 328/3/6 331/3/6
f 331/3/6 328/3/6 332/3/6
f 333/3/6 334/3/6 337/3/6
f 337/3/6 334/3/6 338/3/6
f 335/3/6 336/3/6 339/3/6
f 339/3/6 336/3/6 340/3/6
f 341/3/6 342/3/6 345/3/6
f 345/3/6 342/3/6 346/3/6
f 343/3/6 344/3/6 347/3/6
f 347/3/6 344/3/6 348/3/6
f 349/3/6 350/3/6 353/3/6
f 353/3/6 350/3/6 354/3/6
f 351/3/6 352/3/6 355/3/6
f 355/3/6 352/3/6 356/3/6
f 357/3/6 358/3/6 361/3/6
f 361/3/6 358/3/6 362/3/6
f 359/3/6 360/3/6 363/3/6
f 363/3/6 360/3/6 364/3/6
f 365/3/6 366/3/6 369/3/6
f 369/3/6 366/3/6 370/3/6
f 367/3/6 368/3/6 371/3/6
f 371/3/6 368/3/6 372/3/6
f 373/3/6 374/3/6 377/3/6
f 377/3/6 374/3/6 378/3/6
f 375/3/6 376/3/6 379/3/6
f 379/3/6 376/3/6 380/3/6
f 381/3/6 382/3/6 383/3/6
f 383/3/6 382/3/6 384/3/6
